<svg width="36" height="36" viewBox="0 0 36 36" fill="none" xmlns="http://www.w3.org/2000/svg">
<path d="M11.6758 2.91943V7.29849" stroke="#0A0E14" stroke-width="1.5" stroke-miterlimit="10" stroke-linecap="round" stroke-linejoin="round"/>
<path d="M23.3555 2.91943V7.29849" stroke="#0A0E14" stroke-width="1.5" stroke-miterlimit="10" stroke-linecap="round" stroke-linejoin="round"/>
<path d="M5.10938 13.2686H29.924" stroke="#0A0E14" stroke-width="1.5" stroke-miterlimit="10" stroke-linecap="round" stroke-linejoin="round"/>
<path d="M32.115 27.7343C32.115 28.829 31.8084 29.8654 31.2684 30.7412C30.2612 32.4344 28.4074 33.573 26.2762 33.573C24.802 33.573 23.4591 33.0329 22.4373 32.1133C21.9848 31.7338 21.5907 31.2667 21.2841 30.7412C20.744 29.8654 20.4375 28.829 20.4375 27.7343C20.4375 24.5083 23.0503 21.8955 26.2762 21.8955C28.0279 21.8955 29.5897 22.6691 30.6553 23.8807C31.5603 24.917 32.115 26.26 32.115 27.7343Z" stroke="#0A0E14" stroke-width="1.5" stroke-miterlimit="10" stroke-linecap="round" stroke-linejoin="round"/>
<path d="M24 27.7342L25.4451 29.1793L28.5542 26.3037" stroke="#0A0E14" stroke-width="1.5" stroke-linecap="round" stroke-linejoin="round"/>
<path d="M30.6532 12.4073V23.8804C29.5877 22.6689 28.0258 21.8953 26.2742 21.8953C23.0483 21.8953 20.4354 24.5081 20.4354 27.734C20.4354 28.8288 20.742 29.8652 21.2821 30.741C21.5886 31.2665 21.9827 31.7336 22.4352 32.1131H11.6773C6.56843 32.1131 4.37891 29.1937 4.37891 24.8146V12.4073C4.37891 8.02826 6.56843 5.10889 11.6773 5.10889H23.3548C28.4637 5.10889 30.6532 8.02826 30.6532 12.4073Z" stroke="#0A0E14" stroke-width="1.5" stroke-miterlimit="10" stroke-linecap="round" stroke-linejoin="round"/>
<path d="M17.5109 19.9979H17.524" stroke="#0A0E14" stroke-width="2" stroke-linecap="round" stroke-linejoin="round"/>
<path d="M12.1085 19.9979H12.1217" stroke="#0A0E14" stroke-width="2" stroke-linecap="round" stroke-linejoin="round"/>
<path d="M12.1085 24.3768H12.1217" stroke="#0A0E14" stroke-width="2" stroke-linecap="round" stroke-linejoin="round"/>
</svg>
