<?xml version="1.0" encoding="utf-8"?>
<!-- Svg Vector Icons : http://www.onlinewebfonts.com/icon -->
<!DOCTYPE svg PUBLIC "-//W3C//DTD SVG 1.1//EN" "http://www.w3.org/Graphics/SVG/1.1/DTD/svg11.dtd">
<svg version="1.1" xmlns="http://www.w3.org/2000/svg" xmlns:xlink="http://www.w3.org/1999/xlink" x="0px" y="0px" viewBox="0 0 256 256" enable-background="new 0 0 256 256" xml:space="preserve">
<metadata> Svg Vector Icons : http://www.onlinewebfonts.com/icon </metadata>
<g><g><path fill="#000000" d="M10,42c0.2-0.8,0.4-1.5,0.5-2.3c1.8-7.5,8.2-12.7,15.8-12.9c0.7,0,1.3,0,2,0c38.2,0,76.5,0,114.7,0c0.6,0,1.2,0,1.9,0c0,5.4,0,10.8,0,16.3c-39.6,0-79.1,0-118.7,0c0,62.2,0,124.2,0,186.4c62.1,0,124.2,0,186.4,0c0-39.4,0-78.7,0-118.2c5.7,0,11.2,0,16.9,0c0,0.5,0,1,0,1.5c0,38.6,0,77.2,0,115.8c0,8.8-5,15.4-13.1,17.3c-1.3,0.3-2.7,0.4-4.1,0.4c-61.8,0-123.5,0-185.3,0c-8.8,0-15.6-5.8-17-14.5c0-0.3-0.2-0.5-0.3-0.7C10,168.1,10,105.1,10,42z"/><path fill="#000000" d="M133.7,157.2c-11.7-11.7-23.6-23.6-35.3-35.3c27.6-27.6,55.4-55.4,83-83c11.7,11.7,23.5,23.5,35.3,35.3C189.1,101.9,161.4,129.6,133.7,157.2z"/><path fill="#000000" d="M229.6,61.8c-11.9-11.9-23.8-23.8-35.7-35.7c0.2-0.2,0.4-0.5,0.7-0.8c3.4-3.4,6.8-6.9,10.3-10.3c7.3-7.2,17.5-7.2,24.7,0c3.7,3.7,7.4,7.4,11.1,11.1c7.2,7.2,7.2,17.5,0,24.7c-3.4,3.5-6.9,6.9-10.4,10.4C230,61.5,229.8,61.7,229.6,61.8z"/><path fill="#000000" d="M85.4,134.2c12,12,24.1,24.1,36.1,36.1c-2.7,1.9-5.6,3.8-9.2,4.1c-8.1,0.6-15.4,4.3-23.1,6.5c-6.9,2-13.7,4.3-20.8,6.6c0.1-0.6,0.2-0.9,0.4-1.3c4-12.5,8-25,12-37.6c0.5-1.5,0.5-3.1,0.6-4.7c0.3-3,1.4-5.7,3.2-8.1C84.8,135.2,85.1,134.6,85.4,134.2z"/></g></g>
</svg>